<?xml version="1.0" standalone="no"?>
<!DOCTYPE svg PUBLIC "-//W3C//DTD SVG 20010904//EN"
 "http://www.w3.org/TR/2001/REC-SVG-20010904/DTD/svg10.dtd">
<svg version="1.0" xmlns="http://www.w3.org/2000/svg"
 width="5120.000000pt" height="5120.000000pt" viewBox="0 0 5120.000000 5120.000000"
 preserveAspectRatio="xMidYMid meet">

<g transform="translate(0.000000,5120.000000) scale(0.100000,-0.100000)"
fill="#000000" stroke="none">
<path d="M25050 44579 c-2340 -110 -4375 -880 -5905 -2238 -165 -146 -509
-490 -646 -646 -880 -1001 -1481 -2159 -1825 -3515 -424 -1669 -427 -3641 -9
-5546 483 -2200 1496 -4248 2884 -5824 264 -300 661 -697 951 -950 1231 -1076
2597 -1746 4025 -1974 383 -61 640 -80 1075 -80 435 0 692 19 1075 80 1428
228 2794 898 4025 1974 290 253 687 650 951 950 986 1120 1797 2499 2348 3993
837 2268 1066 4743 636 6892 -312 1562 -950 2881 -1934 4000 -137 156 -481
500 -646 646 -1448 1285 -3348 2045 -5530 2214 -450 34 -1041 44 -1475 24z
m1310 -813 c1062 -78 1999 -283 2877 -630 362 -142 802 -355 1118 -541 1602
-940 2737 -2399 3290 -4230 371 -1228 488 -2651 339 -4120 -320 -3174 -1850
-6188 -4054 -7990 -1319 -1078 -2829 -1655 -4330 -1655 -1194 0 -2397 365
-3510 1065 -1317 827 -2507 2143 -3372 3725 -1121 2052 -1671 4435 -1547 6715
132 2441 1054 4433 2685 5796 274 229 671 508 989 694 182 107 576 309 780
400 668 299 1436 526 2215 654 425 70 806 109 1335 135 177 9 985 -4 1185 -18z"/>
<path d="M19230 22319 c-3063 -110 -5986 -1109 -8320 -2842 -1294 -961 -2367
-2127 -3131 -3402 -770 -1284 -1216 -2615 -1343 -4015 -35 -375 -37 -600 -34
-2885 3 -2226 3 -2261 23 -2308 45 -110 145 -203 254 -237 63 -20 143 -20
18921 -20 18778 0 18858 0 18921 20 109 34 209 127 254 237 20 47 20 82 23
2308 3 2285 1 2510 -34 2885 -143 1576 -699 3090 -1650 4497 -570 844 -1285
1641 -2099 2340 -2204 1895 -5077 3080 -8160 3367 -638 60 -1381 80 -2015 56
-344 -14 -349 -15 -536 -151 -1146 -833 -2447 -1344 -3815 -1498 -328 -37
-489 -46 -889 -46 -400 0 -561 9 -889 46 -1363 154 -2674 667 -3806 1492 -148
107 -170 120 -240 136 -121 27 -930 38 -1435 20z m1305 -874 c746 -534 1658
-981 2547 -1250 2156 -652 4447 -448 6463 576 372 188 759 420 1065 637 l165
117 605 0 c614 0 777 -6 1260 -46 3093 -251 6005 -1481 8138 -3437 1762 -1616
2872 -3620 3152 -5695 68 -507 70 -579 70 -2879 l0 -2058 -18400 0 -18400 0 0
2063 c0 1970 3 2233 30 2527 161 1749 898 3448 2146 4946 413 495 932 1015
1439 1440 2148 1800 4961 2903 7930 3109 413 29 582 33 1135 31 l545 -3 110
-78z"/>
</g>
</svg>
